<?xml version="1.0" encoding="UTF-8"?>
<svg id="Layer_1" xmlns="http://www.w3.org/2000/svg" version="1.1" viewBox="0 0 306 344.4">
  <!-- Generator: Adobe Illustrator 29.0.1, SVG Export Plug-In . SVG Version: 2.1.0 Build 192)  -->
  <defs>
    <style>
      .st0 {
        fill: #9d2c56;
      }

      .st1 {
        fill: #cb396e;
      }

      .st2 {
        fill: #fff;
      }

      .st3 {
        fill: #7a345a;
      }
    </style>
  </defs>
  <path class="st0" d="M302.1,258.3c2.4-4.2,3.9-8.8,3.9-13.1V99.1c0-4.2-1.5-8.9-3.9-13.1l-149.1,86.1,149.1,86.1Z"/>
  <path class="st3" d="M166.2,341.2l126.5-73c3.6-2.1,7-5.7,9.4-9.9l-149.1-86.1L3.9,258.3c2.4,4.2,5.7,7.8,9.4,9.9l126.5,73c7.3,4.2,19.2,4.2,26.5,0Z"/>
  <path class="st1" d="M302.1,86.1c-2.4-4.2-5.7-7.8-9.4-9.9L166.2,3.2c-7.3-4.2-19.2-4.2-26.5,0L13.2,76.2c-7.3,4.2-13.2,14.5-13.2,22.9v146.1c0,4.2,1.5,8.9,3.9,13.1l149.1-86.1,149.1-86.1Z"/>
  <path class="st2" d="M153,274.2c-56.2,0-102-45.8-102-102s45.8-102,102-102,70.1,19.5,88.3,51l-44.1,25.5c-9.1-15.7-26-25.5-44.2-25.5-28.1,0-51,22.9-51,51s22.9,51,51,51,35.1-9.8,44.2-25.5l44.1,25.5c-18.2,31.4-52,51-88.3,51Z"/>
  <path class="st2" d="M250.4,145.2c-.6-1.2-1.9-2-3.3-2s-2.7.8-3.3,2l-7.3,15-16.3,2.4c-1.4.2-2.5,1.2-2.9,2.5s0,2.7.9,3.7l11.8,11.7-2.8,16.5c-.2,1.4.3,2.7,1.5,3.6s2.6.9,3.8.3l14.6-7.8,14.6,7.8c1.2.6,2.7.6,3.8-.3s1.7-2.2,1.5-3.6l-2.8-16.5,11.8-11.7c1-1,1.3-2.4.9-3.7s-1.6-2.3-2.9-2.5l-16.3-2.4-7.3-15Z"/>
</svg>